<?xml version="1.0" encoding="utf-8"?>
<!-- Generator: Adobe Illustrator 28.0.0, SVG Export Plug-In . SVG Version: 6.00 Build 0)  -->
<svg version="1.1" id="Logo_-_dark" xmlns="http://www.w3.org/2000/svg" xmlns:xlink="http://www.w3.org/1999/xlink" x="0px"
	 y="0px" viewBox="0 0 486 190" style="enable-background:new 0 0 486 190;" xml:space="preserve">
<style type="text/css">
	.st0{fill:#1B1B20;}
</style>
<g id="Family_Education">
	<g>
		<path class="st0" d="M164.9,86.9c-5-0.6-6.1-4.8-6.3-10.9V36.2c0-0.9-0.6-1.2-1.2-1.2h-0.3c-0.5,0-0.8,0.3-1.1,0.5l-0.6,0.5
			c-2.2,1.6-4.9,3.6-10.6,6c-5.2-4.5-12.1-6.9-20-6.9c-14.2,0-29.5,8.7-29.5,32.9s16.8,33.2,28,33.2c9.1,0,14.2-4,17-7.5l-0.8,6.1
			c0,0.2-0.1,0.7,0.3,1.1c0.2,0.2,0.5,0.4,0.9,0.4h0.3c0.5,0,1.1-0.1,1.5-0.3l0.1,0c5.3-2.3,10.2-4.5,21.9-4.5c1.7,0,2.8-1,2.8-2.6
			v-4.1C167.3,88,166.5,87.1,164.9,86.9L164.9,86.9z M139.6,56.9v24.2c-0.4,1.1-3.1,7.2-10.8,7.2c-9.6,0-15.9-9.6-15.9-24.4
			c0-12.5,4.7-18.9,14-18.9S138.7,52.5,139.6,56.9z"/>
		<path class="st0" d="M292.3,90.2h-1.2c-5,0-8-4-8-10.6V59.5C283.1,43,276,35,261.4,35c-8.6,0-16,3.7-22,10.9
			c-3-7.3-9.5-10.9-19.7-10.9c-7.5,0-14,3.7-19.5,11l1.6-11.8c0.1-0.4,0-0.7-0.2-1c-0.3-0.4-0.8-0.4-0.9-0.4h-0.3
			c-0.5,0-0.8,0.3-1.1,0.5c-3.6,2.6-12.9,7-23.7,8.7c-0.6,0.1-2.6,0.4-2.6,2.6v4.1c-0.1,1.5,0.8,2.4,2.3,2.6c5.3,0.6,6.3,5.2,6.3,13
			v15.3c0,6.6-2.9,10.6-7.9,10.6h-0.2c-1.8,0-2.8,1.1-2.8,2.8v3.7c0,1.8,1.1,2.8,2.8,2.8h34.3c1.8,0,2.8-1.1,2.8-2.8v-3.7
			c0-1.8-1.1-2.8-2.8-2.8h-0.3c-4,0-6.8-4.4-6.8-10.6V57.4c2-4.6,8.1-9.6,13.8-9.6c2.7,0,4.6,0.6,5.8,1.8c2.1,2.1,2,6,2,10.5v19.7
			c0.1,4.6-0.7,7.7-2.3,9.4c-0.8,0.8-1.8,1.2-3.1,1.2H216c-1.8,0-2.8,1.1-2.8,2.8v3.7c0,1.8,1.1,2.8,2.8,2.8H249
			c1.8,0,2.8-1.1,2.8-2.8v-3.7c0-1.8-1.1-2.8-2.8-2.8h-1c-3.5,0-6.7-1.3-6.8-10.6V58.6c2.6-5,7.4-10.8,14.8-10.8
			c2.5,0,4.4,0.6,5.6,1.8c2.3,2.3,2.2,6.5,2.2,10.6v19.4c0,9-1.8,10.6-5.4,10.6H258c-1.8,0-2.8,1.1-2.8,2.8v3.7
			c0,1.8,1.1,2.8,2.8,2.8h34.3c1.8,0,2.8-1.1,2.8-2.8v-3.7C295.1,91.3,294.1,90.3,292.3,90.2L292.3,90.2z"/>
		<path class="st0" d="M96,38.7c-0.3-0.4-0.8-0.4-0.9-0.4h-0.3c-0.5,0-0.8,0.3-1.1,0.5c-4.9,3.6-10.6,6.3-16.9,8.2
			c-3,0.9-6.1,1.6-9.2,2c-1.8,0.2-4.4,0.5-5.7,0.5c0-1-0.1-2.8-0.1-3.5c0-1.8,0-4.4,0-6.7V16.8h17c6.5,0,11.6,1.1,15.5,3.5
			c1.5,0.9,2.9,2,4.1,3.4c0.6,0.7,1.2,1.4,1.7,2.2c0.5,0.7,1.3,2,2.8,2.3c1,0.2,1.9,0,2.7-0.3c0.8-0.3,1.5-0.6,2.3-0.9
			c0.7-0.4,1.5-0.8,2-1.6c0.2-0.3,0.4-0.7,0.4-1l0,0c0.3-1.6-0.7-3.1-1.5-4.4c-0.2-0.3-0.3-0.5-0.5-0.7l-4.7-8c-1-1.8-2-3.5-3.1-5.2
			c-0.4-0.7-1.3-1.5-3.1-1.4c-1.5,0.1-3.2,0.8-4.6,1.4l-0.4,0.2H33.1c-1.5,0-2.5,0.8-2.8,2.3c0,0.1,0,0.2,0,0.3l0,3.9
			c0,1.8,1.1,2.8,2.8,2.8h0.1c7,0,7.8,6,7.8,10.6v53.6c0,6.9-2.4,10.3-7.2,10.6h-0.7c-1.6,0-2.8,1.3-2.8,2.8v3.7
			c0,1.6,1.3,2.8,2.8,2.8h37.5c1.6,0,2.8-1.3,2.8-2.8v-3.7c0-1.6-1.3-2.8-2.8-2.8h-0.8c-4.9-0.2-7.3-3.7-7.3-10.6v-1.8
			c0-0.1,0-0.2,0-0.3v-0.7c0-0.2,0-0.4,0-0.5v-0.2c0-5.4-0.2-12.7-0.2-15.4h2.3c12.8-0.1,24.5-0.2,26.4-1l0.5-0.2l4.8-19.8
			C96.3,39.3,96.2,39,96,38.7L96,38.7z"/>
		<path class="st0" d="M336.3,90.2H336c-5,0-8-4-8-10.6v-46l-0.2-0.2c-0.2-0.3-0.5-0.7-1.1-0.7h-0.3c-0.5,0-0.9,0.2-1.3,0.6
			c-4.4,4.7-11.8,8.8-22,12.1c-1.1,0.4-2.5,0.8-2.5,2.6v4.1c-0.1,1.5,0.8,2.4,2.3,2.6c5.2,0.6,6.3,5.2,6.3,11.9v13
			c0.1,3.7-0.9,6.7-2.7,8.6c-1.3,1.3-3,2-5.2,2h-0.2c-1.8,0-2.8,1.1-2.8,2.8v3.7c0,1.7,1.3,2.8,3.1,2.8H336c1.8,0,3.1-1.2,3.1-2.8
			v-3.7C339.1,91.3,338,90.2,336.3,90.2L336.3,90.2z"/>
		<path class="st0" d="M317.4,29.8c2.7,0,4.9-1.1,7.5-3.7c2.6-2.6,3.7-4.8,3.7-7.6s-1.1-4.9-3.7-7.6s-4.8-3.7-7.5-3.7
			s-4.9,1.1-7.5,3.7c-2.6,2.6-3.7,4.8-3.7,7.6s1.1,4.9,3.7,7.5S314.6,29.8,317.4,29.8z"/>
		<path class="st0" d="M380.2,90.2c-5,0-8-4-8-10.6V0.9L372,0.7c-0.1-0.2-0.4-0.7-1.1-0.7h-0.3c-0.5,0-0.8,0.3-1.1,0.5
			c-2.6,1.8-9.4,6.7-22.6,11.1c-1.1,0.4-2.5,0.8-2.5,2.6v4.1c-0.1,1.5,0.8,2.4,2.3,2.6c5.3,0.6,6.3,5.2,6.3,13v45.7
			c0.1,3.7-0.9,6.7-2.7,8.6c-1.3,1.3-3,2-5.2,2c-1.8,0-2.8,1.1-2.8,2.8v3.7c0,1.8,1.1,2.8,2.8,2.8h35c1.8,0,2.8-1.1,2.8-2.8v-3.7
			C383,91.3,381.9,90.2,380.2,90.2L380.2,90.2z"/>
		<path class="st0" d="M444.1,36.5h-23.6c-1.8,0-2.8,1.1-2.8,2.8V43c0,1.8,1.1,2.8,2.8,2.8h2.2c1.5,0,1.8,0.6,1.8,1.6
			c0,2-1.5,5.5-2.9,8.2l-7.9,16.2l-7.3-16c-1.3-2.8-2.6-5.9-2.6-7.9c0-1,0.2-2.2,2.9-2.2h0.3c1.7,0,2.8-1.1,2.8-2.8v-3.7
			c0-1.7-1.1-2.8-2.8-2.8h-28.2c-1.8,0-2.8,1.1-2.8,2.8V43c0,1.8,1.1,2.8,2.8,2.8h0.3c2.3,0,3.2,1,6.1,7.1l17.7,36.7l-13.4,28.8
			c-0.5,1-0.4,1.7-0.2,2.2c0.2,0.5,0.6,1.1,1.5,1.5l6.3,3.2c0.4,0.2,0.9,0.3,1.3,0.3c1,0,1.9-0.6,2.4-1.6l35.4-71.2
			c2.7-6,4.2-7,6.2-7h1.7c1.8,0,2.8-1.1,2.8-2.8v-3.7C446.9,37.6,445.8,36.5,444.1,36.5L444.1,36.5z"/>
	</g>
	<g>
		<path class="st0" d="M49.1,173.7c-3.3-1.9-3.6-2.1-4.5-2.1c-0.5,0-1.2,0.2-1.7,0.9c-3.6,5.2-8.6,7-12,7c-6,0-11.1-3.5-13.9-9.4
			l28.4-12.4c1-0.4,1.4-1.1,1.4-2.2c0-8.6-8.3-20.5-21.8-20.5c-6.7,0-12.8,2.2-17.2,6.2C2.7,145.9,0,153.1,0,161.9
			c0,16.2,11.8,27.9,28.1,27.9c9.7,0,16.8-4.1,21.1-12.3c0.4-0.7,0.8-1.5,0.8-2.2C50,174.6,49.7,174,49.1,173.7L49.1,173.7z
			 M22.6,145c4,0,6.9,4,7.1,9.5l-14.6,7.4c-0.5-2-0.6-4.4-0.6-6.3C14.5,149.4,17.8,145,22.6,145z"/>
		<path class="st0" d="M110.4,180.2c0.1-1.4-0.7-2.2-2.1-2.3c-3.5-0.4-4.9-2.9-5.1-8.9v-62c0-0.8-0.6-1.2-1.1-1.2h-0.2
			c-0.5,0-0.8,0.2-1,0.4c-2.1,1.5-7.7,5.6-18.7,9.2c-1,0.3-2.2,0.7-2.2,2.3v3.4c-0.1,1.4,0.7,2.2,2.1,2.3c4.2,0.5,5.1,4.2,5.1,10.6
			v4.4c-3.4-2.4-7.6-3.7-12.1-3.7c-11.9,0-24.6,7.2-24.6,27.5s14,27.7,23.4,27.7c7.2,0,11.5-3,13.8-5.9l-0.6,4.4
			c-0.1,0.4,0,0.8,0.3,1.1c0.2,0.2,0.5,0.4,0.9,0.4h0.2c0.4,0,0.9-0.1,1.3-0.3l0.2-0.1c4.3-1.9,8.4-3.7,18-3.7h0
			c1.5,0,2.5-0.9,2.5-2.3L110.4,180.2L110.4,180.2z M78.4,179.1c-7.9,0-13-7.9-13-20c0-9.8,3.7-14.5,11.4-14.5
			c6.6,0,9.7,5.4,10.3,10.5v16.4C86.8,172.4,84.6,179.1,78.4,179.1L78.4,179.1z"/>
		<path class="st0" d="M172.8,180.2c0.1-1.4-0.7-2.2-2.1-2.3c-4.2-0.5-5.1-4.2-5.1-10.6v-28.6c0-0.9-0.4-1.5-0.7-1.8
			s-0.9-0.7-1.8-0.7h-20.3c-1.5,0-2.5,1-2.5,2.5v3c0,1.5,1,2.5,2.5,2.5h0.2c4,0,6.4,3.2,6.4,8.6v18.4c-1.6,3.7-6.6,7.8-11.3,7.8
			c-2,0-3.5-0.5-4.5-1.5c-1.8-1.8-1.8-5.3-1.8-8.7v-30.3c0-0.9-0.4-1.5-0.7-1.8s-0.9-0.7-1.8-0.7H109l-0.2,0c-1.5,0-2.5,1-2.5,2.5v3
			c0,1.5,1,2.5,2.5,2.5h0.4c5.9,0,6.4,6.6,6.4,8.6v16.7c0,13.8,6,20.5,18.2,20.5c8.2,0,13.7-5.3,16.7-9.5l-1,8.1
			c0,0.2-0.1,0.6,0.3,1c0.2,0.2,0.5,0.4,0.8,0.4h0.2c0.4,0,0.9-0.1,1.3-0.3l0.3-0.1c4.3-1.9,8.4-3.7,17.8-3.7c1.5,0,2.5-0.9,2.5-2.3
			L172.8,180.2L172.8,180.2z"/>
		<path class="st0" d="M218.2,173.3l-2.7-1.9c-0.5-0.3-1-0.5-1.5-0.5c-0.6,0-1.4,0.2-2,1.2c-2.6,3.8-6.5,6.4-10.5,6.8
			c-0.6,0.1-1.2,0.1-1.8,0.1c-11.5,0-12.8-12.9-12.8-18.4c0-1.2,0.1-2.5,0.2-3.7c0.3-3.6,1.8-11.9,9.1-11.9c2.5,0,4.4,0.7,5.6,2
			c1.3,1.4,1.8,3.4,1.6,6.1l-0.1,1c-0.1,0.5,0,0.9,0.3,1.2c0.2,0.3,0.7,0.6,1.5,0.6c0.3,0,0.7-0.1,1.1-0.2l11.6-3.1
			c1.2-0.3,1.9-1.2,1.9-2.3l-0.1-0.6c-1.4-6.1-5.8-13.7-19.3-14.6l-1.9-0.1c-12.2,0-25.1,7.7-26.5,24.9c-0.7,8,2.1,16.2,7.3,21.9
			c4.6,5.1,10.9,7.8,17.7,7.8c0.9,0,1.9-0.1,2.8-0.1c9.2-0.9,15.6-5.3,19.2-12.9C219.7,175.3,219.4,174.1,218.2,173.3L218.2,173.3z"
			/>
		<path class="st0" d="M281.1,180.2c0.1-1.4-0.7-2.2-2.1-2.3c-3.5-0.4-4.9-2.9-5.1-8.9v-33c0-0.8-0.6-1.2-1.1-1.2h-0.2
			c-0.5,0-0.8,0.2-1,0.4l-0.5,0.4c-1.8,1.3-4,2.9-8.7,4.9c-4.4-3.7-10.1-5.7-16.6-5.7c-11.9,0-24.6,7.2-24.6,27.4s14,27.7,23.4,27.7
			c7.2,0,11.5-3,13.8-5.8l-0.6,4.4c0,0.2-0.1,0.6,0.3,1c0.2,0.2,0.5,0.4,0.8,0.4h0.2c0.4,0,1-0.1,1.3-0.3l0.1,0
			c4.5-2,8.4-3.7,18.1-3.7c1.5,0,2.5-0.9,2.5-2.3L281.1,180.2L281.1,180.2z M257.9,153.2v20c-0.4,0.9-2.6,5.8-8.7,5.8
			c-7.9,0-13-7.9-13-20c0-10.3,3.8-15.5,11.4-15.5C254.5,143.6,257,148.8,257.9,153.2L257.9,153.2z"/>
		<path class="st0" d="M319.6,179.9l-1.6-2.6c-0.8-1.3-2.2-1.6-3.5-0.8l-0.1,0.1c-1.9,1.2-4.6,2.7-6.7,2.7c-0.8,0-3.2,0-3.2-5.9
			v-27.9H317c1.5,0,2.5-1,2.5-2.5v-4.3c0-1.5-1-2.5-2.5-2.5h-12.5v-16.1c-0.1-0.5-0.5-1.1-1.2-1.1h-0.1c-0.5,0-0.9,0.3-1.1,0.5
			c-3.7,3.2-8.8,6.3-12.2,8.2c-1,0.5-1.4,1.4-1.4,2.7v5.8H282c-1.5,0-2.5,1-2.5,2.5v3c0,1.5,1,2.5,2.5,2.5c5.9,0,6.3,4.1,6.3,10.5
			v18.7c0,6.2,1.6,16.5,12.7,16.5c6.6,0,12.9-3.6,14.7-4.7l3-1.9c1.1-0.7,1.2-1.6,1.2-2S319.9,180.3,319.6,179.9L319.6,179.9z"/>
		<path class="st0" d="M352.5,180.6h-0.2c-4,0-6.4-3.2-6.4-8.6v-38.2l-0.2-0.2c-0.1-0.2-0.4-0.6-1.1-0.6h-0.2
			c-0.4,0-0.8,0.2-1.2,0.6c-3.7,3.9-9.8,7.2-18.2,10c-1,0.3-2.1,0.7-2.1,2.3v3.4c-0.1,1.4,0.7,2.2,2.1,2.3c4.2,0.5,5.1,4.2,5.1,9.7
			V172c0,2.5-0.5,5.2-1.7,7.7c-0.8,1.8-1.8,3.1-2.9,3.9c-0.5,0.4-1.1,0.7-1.7,0.8c-0.3,0.1-0.7,0.1-1,0.1c-0.6,0-1.7,0.2-1.8,1.6
			v0.1l0,0c0.1,1.4,1.2,2.4,2.7,2.4h28.6c1.6,0,2.7-1,2.7-2.5v-3C355,181.6,354,180.6,352.5,180.6L352.5,180.6z"/>
		<path class="st0" d="M343.5,116.8c-2-2-3.7-2.8-5.8-2.8s-3.8,0.8-5.8,2.8c-2,2-2.8,3.7-2.8,5.8s0.8,3.8,2.8,5.8
			c2,2,3.7,2.8,5.8,2.8s3.8-0.8,5.8-2.8s2.8-3.7,2.8-5.8S345.5,118.7,343.5,116.8z"/>
		<path class="st0" d="M405.7,151.5c-4.5-10.1-14.3-16.6-25.1-16.6c-3.7,0-7.3,0.8-10.6,2.3c-9.5,4.2-15.7,13.9-15.7,24.7
			c0,3.9,0.8,7.8,2.4,11.5c4.5,10.1,14.3,16.6,25.1,16.6c3.7,0,7.3-0.8,10.6-2.3c9.6-4.3,15.7-13.9,15.7-24.6
			C408.1,159,407.3,155.2,405.7,151.5L405.7,151.5z M384.9,179.8c-6,0-11.1-6.7-13.9-12.9c-1.8-4-2.7-8-2.7-11.4
			c0-4.8,1.9-8.1,5.5-9.7c1.2-0.5,2.4-0.8,3.6-0.8c6,0,11.1,6.6,13.9,12.9c1.8,4,2.7,8,2.7,11.4c0,4.8-1.9,8.1-5.5,9.7
			C387.4,179.6,386.1,179.8,384.9,179.8L384.9,179.8z"/>
		<path class="st0" d="M474.6,180.6h-0.4c-6,0-6.4-6.6-6.4-8.6v-16.7c0-13.8-6-20.5-18.2-20.5c-6.1,0-11.4,2.9-15.9,8.6l1.2-9.2
			c0-0.4,0-0.7-0.2-0.9c-0.2-0.2-0.5-0.4-0.9-0.4h-0.2c-0.5,0-0.8,0.2-1,0.4c-3,2.1-10.6,5.8-19.6,7.2c-1.5,0.2-2.3,1-2.3,2.3v3.4
			c-0.1,1.4,0.7,2.2,2.1,2.3c4.2,0.5,5.1,4.2,5.1,10.6V172c0,2-0.5,8.6-6.3,8.6h-0.2c-1.4,0-2.5,1.1-2.5,2.5v3
			c0,1.4,1.1,2.5,2.5,2.5h29.4c1.4,0,2.5-1.1,2.5-2.5v-3c0-1.4-1.1-2.5-2.5-2.5h-0.2c-4,0-6.4-3.2-6.4-8.6v-18.4
			c1.6-3.7,6.6-7.8,11.3-7.8c2,0,3.5,0.5,4.5,1.5c1.8,1.8,1.8,5.3,1.8,8.7V172c0,0.3,0,0.6,0,0.8h0v13.3c0,1.4,1.1,2.5,2.5,2.5h20.5
			c1.4,0,2.5-1.1,2.5-2.5v-3C477.2,181.8,476,180.6,474.6,180.6L474.6,180.6z"/>
	</g>
</g>
</svg>
